<?xml version="1.0" standalone="no"?>
<!DOCTYPE svg PUBLIC "-//W3C//DTD SVG 20010904//EN"
 "http://www.w3.org/TR/2001/REC-SVG-20010904/DTD/svg10.dtd">
<svg version="1.0" xmlns="http://www.w3.org/2000/svg"
 width="468.000000pt" height="468.000000pt" viewBox="0 0 468.000000 468.000000"
 preserveAspectRatio="xMidYMid meet">
<metadata>
Created by potrace 1.11, written by Peter Selinger 2001-2013
</metadata>
<g transform="translate(0.000000,468.000000) scale(0.100000,-0.100000)"
fill="#000000" stroke="none">
<path d="M3239 3783 c-35 -32 -80 -75 -100 -95 -47 -46 -107 -173 -115 -241
-4 -29 -8 -59 -10 -67 -1 -8 -3 -23 -3 -32 -1 -23 -72 -42 -133 -35 -44 6 -47
5 -71 -31 -13 -20 -54 -99 -91 -175 -60 -124 -72 -140 -103 -153 -25 -11 -40
-27 -53 -57 -19 -43 -23 -62 -35 -151 -3 -27 -8 -52 -10 -56 -2 -4 -6 -17 -8
-31 -12 -65 -72 -254 -87 -274 -4 -5 -15 -37 -26 -70 -10 -33 -34 -94 -53
-135 -20 -41 -42 -92 -50 -112 -8 -21 -18 -38 -22 -38 -13 0 -21 66 -13 102 4
18 9 38 10 43 1 6 14 51 29 100 15 50 33 115 41 145 23 85 124 407 141 450 4
8 7 17 7 20 8 36 58 149 90 199 38 61 39 64 21 77 -44 32 -62 11 -121 -142
-25 -65 -47 -123 -48 -129 -2 -5 -6 -17 -9 -25 -8 -19 -69 -202 -72 -215 -1
-5 -5 -17 -8 -25 -7 -18 -30 -92 -33 -102 -1 -5 -3 -10 -4 -13 -1 -3 -3 -8 -4
-12 -1 -5 -5 -14 -9 -20 -5 -7 -6 -13 -3 -13 3 0 1 -12 -5 -27 -16 -40 -78
-259 -84 -297 -3 -17 -7 -42 -9 -56 -2 -14 2 -43 9 -63 14 -42 20 -30 -89
-182 -111 -153 -233 -376 -293 -535 -41 -107 -73 -212 -67 -221 3 -5 1 -9 -4
-9 -6 0 -9 -6 -8 -12 1 -11 -9 -84 -29 -210 -8 -49 25 -33 120 58 170 161 231
189 460 209 77 7 156 30 182 52 11 10 25 34 31 53 17 57 23 103 36 285 5 73
10 115 20 200 8 63 24 81 70 82 24 1 56 8 73 16 60 31 279 289 310 366 8 20
32 74 54 119 21 46 39 88 39 93 0 5 4 9 9 9 5 0 15 17 21 38 7 20 52 127 100
238 81 183 126 300 136 347 2 10 5 26 8 35 5 15 14 67 21 112 1 8 5 22 8 30 3
8 8 29 11 45 14 81 95 365 114 402 6 10 11 21 11 25 1 4 9 24 17 43 33 79 26
133 -14 117 -40 -15 -52 -38 -90 -177 -34 -122 -82 -300 -88 -327 -2 -10 -6
-26 -9 -35 -3 -10 -18 -78 -34 -152 -29 -132 -52 -182 -70 -152 -11 17 -7 83
8 139 7 24 14 59 17 78 2 19 22 90 44 156 22 67 42 128 43 137 1 9 6 22 10 29
5 6 6 12 3 12 -3 0 -1 12 5 28 6 15 13 56 16 92 11 182 12 180 -51 180 -37 0
-50 -7 -107 -57z"/>
<path d="M1305 2902 c-112 -69 -143 -88 -205 -127 -19 -13 -186 -114 -370
-226 -340 -206 -395 -241 -417 -259 -7 -5 -15 -10 -19 -10 -11 0 -201 -128
-237 -160 -97 -85 -57 -151 183 -308 253 -166 775 -470 994 -579 74 -37 94
-44 124 -38 47 9 64 28 70 80 5 51 -13 73 -95 115 -26 13 -86 46 -132 72 -46
26 -85 48 -87 48 -2 0 -81 46 -176 101 -95 56 -186 109 -203 119 -16 10 -91
55 -165 100 -74 46 -144 88 -155 94 -11 6 -46 28 -78 49 -31 20 -62 37 -67 37
-15 0 -12 15 8 32 9 9 87 59 172 112 85 52 160 99 165 103 6 4 39 25 75 47 36
21 81 49 100 61 19 13 157 98 305 190 456 283 441 271 432 337 -7 49 -37 78
-82 77 -19 0 -69 -24 -140 -67z"/>
<path d="M3568 2823 c-14 -9 -31 -27 -37 -40 -24 -53 -16 -67 133 -220 171
-176 202 -208 326 -342 52 -57 115 -124 140 -151 42 -44 152 -166 193 -214 10
-12 28 -32 40 -46 39 -44 67 -82 67 -91 0 -9 -70 -31 -255 -79 -66 -18 -203
-54 -305 -81 -102 -27 -192 -51 -200 -53 -65 -17 -262 -69 -340 -91 -52 -15
-102 -28 -110 -30 -23 -5 -150 -45 -190 -60 -45 -17 -69 -59 -59 -103 18 -82
38 -84 269 -27 8 2 49 14 90 25 41 12 83 23 92 25 9 2 51 13 93 25 42 12 84
23 93 25 9 2 69 18 132 35 63 17 123 33 133 35 10 2 51 13 91 24 40 11 83 22
97 25 41 8 420 113 493 136 43 13 81 33 99 51 26 27 29 34 23 71 -7 44 -29 84
-84 158 -34 45 -114 141 -142 170 -8 9 -46 51 -84 93 -272 305 -679 721 -720
737 -36 13 -46 12 -78 -7z"/>
</g>
</svg>
